REM DIRINDEX 1\2\5,1\2\6,1\2\7,1\2\8,1\3\9,1\3\10,1\3\11,1\4\12,1\4\13,1\4\14,1\4\15,1\4\16
REM DIRNAME folder01,folder02,folder03,folder04,folder05,folder06,folder07,folder08,folder09,folder10,folder11,folder12,folder13,folder14,folder15,folder16
TITLE ""
FILE "1200_2_sec05_1528_1542.mp3" MP3
  TRACK 01 AUDIO
    TITLE "0:"
    INDEX 01 00:00:00
  TRACK 02 AUDIO
    TITLE "10:cjc034_03173"
    INDEX 01 00:00:13
  TRACK 03 AUDIO
    TITLE "0:"
    INDEX 01 00:01:54
  TRACK 04 AUDIO
    TITLE "9:cjc034_03174"
    INDEX 01 00:01:56
  TRACK 05 AUDIO
    TITLE "0:"
    INDEX 01 00:03:00
  TRACK 06 AUDIO
    TITLE "10:cjc034_03175"
    INDEX 01 00:03:55
  TRACK 07 AUDIO
    TITLE "0:"
    INDEX 01 00:04:64
  TRACK 08 AUDIO
    TITLE "9:cjc034_03176"
    INDEX 01 00:04:68
  TRACK 09 AUDIO
    TITLE "0:"
    INDEX 01 00:06:14
  TRACK 10 AUDIO
    TITLE "10:cjc034_03177"
    INDEX 01 00:06:73
  TRACK 11 AUDIO
    TITLE "0:"
    INDEX 01 00:08:19
  TRACK 12 AUDIO
    TITLE "9:cjc034_03178"
    INDEX 01 00:08:28
  TRACK 13 AUDIO
    TITLE "0:"
    INDEX 01 00:09:57
  TRACK 14 AUDIO
    TITLE "11:cjc034_03179"
    INDEX 01 00:11:31
  TRACK 15 AUDIO
    TITLE "0:"
    INDEX 01 00:13:00
  TRACK 16 AUDIO
    TITLE "10:cjc034_03180"
    INDEX 01 00:13:73
  TRACK 17 AUDIO
    TITLE "0:"
    INDEX 01 00:16:24
  TRACK 18 AUDIO
    TITLE "9:cjc034_03181"
    INDEX 01 00:16:34
  TRACK 19 AUDIO
    TITLE "0:"
    INDEX 01 00:17:74
  TRACK 20 AUDIO
    TITLE "10:cjc034_03182"
    INDEX 01 00:18:58
  TRACK 21 AUDIO
    TITLE "0:"
    INDEX 01 00:20:12
  TRACK 22 AUDIO
    TITLE "9:cjc034_03183"
    INDEX 01 00:20:16
  TRACK 23 AUDIO
    TITLE "0:"
    INDEX 01 00:21:47
  TRACK 24 AUDIO
    TITLE "10:cjc034_03184"
    INDEX 01 00:22:34
  TRACK 25 AUDIO
    TITLE "0:"
    INDEX 01 00:25:45
  TRACK 26 AUDIO
    TITLE "9:cjc034_03185"
    INDEX 01 00:25:50
  TRACK 27 AUDIO
    TITLE "0:"
    INDEX 01 00:26:69
  TRACK 28 AUDIO
    TITLE "10:cjc034_03186"
    INDEX 01 00:27:51
  TRACK 29 AUDIO
    TITLE "0:"
    INDEX 01 00:30:36
  TRACK 30 AUDIO
    TITLE "9:cjc034_03187"
    INDEX 01 00:30:38
  TRACK 31 AUDIO
    TITLE "0:"
    INDEX 01 00:31:51
  TRACK 32 AUDIO
    TITLE "10:cjc034_03188"
    INDEX 01 00:32:35
  TRACK 33 AUDIO
    TITLE "0:"
    INDEX 01 00:34:00
  TRACK 34 AUDIO
    TITLE "9:cjc034_03189"
    INDEX 01 00:34:10
  TRACK 35 AUDIO
    TITLE "0:"
    INDEX 01 00:35:12
  TRACK 36 AUDIO
    TITLE "10:cjc034_03190"
    INDEX 01 00:35:72
  TRACK 37 AUDIO
    TITLE "0:"
    INDEX 01 00:36:72
  TRACK 38 AUDIO
    TITLE "9:cjc034_03191"
    INDEX 01 00:37:05
  TRACK 39 AUDIO
    TITLE "0:"
    INDEX 01 00:38:02
  TRACK 40 AUDIO
    TITLE "10:cjc034_03192"
    INDEX 01 00:38:59
  TRACK 41 AUDIO
    TITLE "0:"
    INDEX 01 00:41:12
  TRACK 42 AUDIO
    TITLE "9:cjc034_03193"
    INDEX 01 00:41:18
  TRACK 43 AUDIO
    TITLE "0:"
    INDEX 01 00:42:14
  TRACK 44 AUDIO
    TITLE "10:cjc034_03194"
    INDEX 01 00:42:74
  TRACK 45 AUDIO
    TITLE "0:"
    INDEX 01 00:43:74
  TRACK 46 AUDIO
    TITLE "9:cjc034_03195"
    INDEX 01 00:44:01
  TRACK 47 AUDIO
    TITLE "0:"
    INDEX 01 00:45:14
  TRACK 48 AUDIO
    TITLE "10:cjc034_03196"
    INDEX 01 00:45:71
  TRACK 49 AUDIO
    TITLE "0:"
    INDEX 01 00:48:32
  TRACK 50 AUDIO
    TITLE "9:cjc034_03197"
    INDEX 01 00:48:34
  TRACK 51 AUDIO
    TITLE "0:"
    INDEX 01 00:49:49
  TRACK 52 AUDIO
    TITLE "10:cjc034_03198"
    INDEX 01 00:50:33
  TRACK 53 AUDIO
    TITLE "0:"
    INDEX 01 00:52:04
  TRACK 54 AUDIO
    TITLE "9:cjc034_03199"
    INDEX 01 00:52:08
  TRACK 55 AUDIO
    TITLE "0:"
    INDEX 01 00:53:19
  TRACK 56 AUDIO
    TITLE "10:cjc034_03200"
    INDEX 01 00:54:01
  TRACK 57 AUDIO
    TITLE "0:"
    INDEX 01 00:57:11
  TRACK 58 AUDIO
    TITLE "9:cjc034_03201"
    INDEX 01 00:57:15
  TRACK 59 AUDIO
    TITLE "0:"
    INDEX 01 00:58:32
  TRACK 60 AUDIO
    TITLE "10:cjc034_03202"
    INDEX 01 00:59:14
  TRACK 61 AUDIO
    TITLE "0:"
    INDEX 01 01:00:47
  TRACK 62 AUDIO
    TITLE "9:cjc034_03203"
    INDEX 01 01:00:51
  TRACK 63 AUDIO
    TITLE "0:"
    INDEX 01 01:01:66
